#!OML:ASF I:\Actors\actors\Patient Classification 1\Patient 1\Session 1\Subject1.ASF
:FULLY-SPECIFIED
:DEGREES
737
root -0.15497 17.839 8.7977 34.5746 -6.86786 -6.81849
lowerback 18.1979 -5.39605 5.92593
upperback 3.65957 -5.36878 8.54254
thorax -5.88885 -2.69357 7.16485
lowerneck -3.8014 -3.78928 -0.0897467
upperneck -3.83435 -4.95871 9.0485
head -0.30364 -2.54378 2.83287
rclavicle 5.24792e-014 -1.8487e-014
rhumerus 20.7941 49.97 -60.277
rradius 65.9121
rwrist 16.4309
rhand -10.0925 -43.9932
rfingers 7.12502
rthumb 15.8946 -73.3608
lclavicle 5.24792e-014 -1.8487e-014
lhumerus 19.7065 6.78687 86.054
lradius 9.10703
lwrist -53.2976
lhand -23.6645 -20.1921
lfingers 7.12502
lthumb 2.80135 9.76926
rfemur -36.7914 25.8589 7.95344
rtibia 5.52748
rfoot -7.279 -26.1482
rtoes 3.74319
lfemur -17.6688 12.4668 -11.1968
ltibia -13.7612
lfoot -8.58945 6.40798
ltoes 51.997
738
root -0.16268 17.8367 8.80849 34.6447 -8.06926 -7.10585
lowerback 18.1503 -5.41797 5.64578
upperback 3.61203 -5.44664 8.79941
thorax -5.85631 -2.73355 7.62618
lowerneck -3.6816 -3.52711 -0.383419
upperneck -3.94574 -4.59249 8.51416
head -0.383753 -2.35904 2.71734
rclavicle 1.21656e-013 -2.98177e-015
rhumerus 24.7247 50.512 -57.2797
rradius 66.22
rwrist 15.6961
rhand -9.73238 -44.5504
rfingers 7.12502
rthumb 16.2413 -73.8901
lclavicle 1.21656e-013 -2.98177e-015
lhumerus 17.918 7.56827 85.1894
lradius 10.0973
lwrist -50.6291
lhand -23.8168 -22.3512
lfingers 7.12502
lthumb 2.65427 7.61198
rfemur -37.0773 26.2378 7.96528
rtibia 5.69031
rfoot -7.0279 -25.3043
rtoes 2.68443
lfemur -17.2354 14.6526 -11.5484
ltibia -13.8461
lfoot -7.98658 5.32826
ltoes 52.3732
739
root -0.175867 17.8341 8.81261 34.6526 -9.21539 -7.1836
lowerback 18.1888 -5.25948 5.46949
upperback 3.45333 -5.2506 8.96289
thorax -6.0346 -2.63525 7.88359
lowerneck -3.45828 -3.58938 -0.978815
upperneck -3.84897 -4.6569 8.57998
head -0.371771 -2.384 2.84988
rclavicle -2.54444e-014 3.03147e-014
rhumerus 28.0209 50.3511 -55.0417
rradius 65.9802
rwrist 14.9015
rhand -9.21796 -45.2658
rfingers 7.12502
rthumb 16.7366 -74.5644
lclavicle -2.54444e-014 3.03147e-014
lhumerus 15.6284 -5.97699 80.617
lradius 12.3294
lwrist -32.1988
lhand -23.7116 -22.5569
lfingers 7.12502
lthumb 2.75592 7.40503
rfemur -37.3709 26.6001 7.76279
rtibia 5.90022
rfoot -6.79605 -24.6496
rtoes 1.64336
lfemur -17.0287 16.6299 -12.1552
ltibia -13.6451
lfoot -7.36887 4.28301
ltoes 52.4396
740
root -0.187914 17.8282 8.81686 34.522 -10.2975 -7.10631
lowerback 18.1099 -4.91229 5.36405
upperback 3.4019 -4.8198 9.08543
thorax -6.06766 -2.42489 7.97692
lowerneck -3.21082 -3.90603 -1.61835
upperneck -3.97578 -5.0478 8.87428
head -0.408749 -2.58089 3.06818
rclavicle 1.62506e-014 1.07741e-013
rhumerus 30.9165 49.6469 -53.1813
rradius 65.3094
rwrist 14.2662
rhand -8.37126 -46.5859
rfingers 7.12502
rthumb 17.5516 -75.8137
lclavicle 1.62506e-014 1.07741e-013
lhumerus 13.6775 -16.8149 78.0557
lradius 16.3828
lwrist -17.3781
lhand -23.7851 -22.2852
lfingers 7.12502
lthumb 2.6849 7.67766
rfemur -37.4585 26.8084 7.5404
rtibia 6.08055
rfoot -6.66723 -23.9779
rtoes 1.04815
lfemur -16.876 18.3888 -12.9777
ltibia -13.2468
lfoot -6.73797 3.27606
ltoes 52.0366
741
root -0.197207 17.8212 8.82451 34.2185 -11.3396 -6.84594
lowerback 18.3071 -4.57791 5.26215
upperback 3.24829 -4.35962 9.20768
thorax -6.36699 -2.19394 8.10256
lowerneck -3.49794 -4.43667 -2.04349
upperneck -3.32868 -5.78796 8.86065
head -0.0991574 -2.92076 3.10964
rclavicle -2.22639e-014 -6.29153e-014
rhumerus 33.5033 49.0804 -51.6711
rradius 63.8417
rwrist 14.4185
rhand -8.02041 -47.3622
rfingers 7.12502
rthumb 17.8892 -76.5594
lclavicle -2.22639e-014 -6.29153e-014
lhumerus 11.4225 -23.3015 77.5926
lradius 20.7105
lwrist -8.15635
lhand -24.8219 -22.3817
lfingers 7.12502
lthumb 1.68354 7.59141
rfemur -37.3114 27.1299 7.09786
rtibia 6.12557
rfoot -6.69123 -23.5751
rtoes 1.07623
lfemur -16.6958 19.9286 -14.047
ltibia -12.7753
lfoot -6.17082 2.29461
ltoes 51.3196
742
root -0.207538 17.8146 8.83034 33.9072 -12.2617 -6.53915
lowerback 18.5894 -4.03454 5.6995
upperback 2.99962 -3.51257 9.07302
thorax -6.90894 -1.7808 7.54898
lowerneck -3.45601 -5.1431 -1.93014
upperneck -3.14337 -6.74738 8.8515
head 0.0039363 -3.39721 3.06242
rclavicle 6.50026e-014 4.05521e-014
rhumerus 34.9676 47.8979 -51.2354
rradius 61.2652
rwrist 14.9772
rhand -8.93043 -47.1011
rfingers 7.12502
rthumb 17.0134 -76.376
lclavicle 6.50026e-014 4.05521e-014
lhumerus 9.25673 -28.7093 77.9654
lradius 25.1531
lwrist -1.69372
lhand -25.3142 -22.9899
lfingers 7.12502
lthumb 1.20809 6.98639
rfemur -37.1873 27.5976 6.52131
rtibia 6.12905
rfoot -6.78729 -23.4871
rtoes 1.35941
lfemur -16.6388 21.3277 -15.1623
ltibia -12.2825
lfoot -5.66472 1.33957
ltoes 50.564
743
root -0.218854 17.8097 8.83318 33.7657 -12.999 -6.38872
lowerback 18.9684 -3.78803 5.66987
upperback 2.68481 -3.08399 9.57393
thorax -7.46726 -1.56201 8.09821
lowerneck -3.02169 -5.32812 -2.92861
upperneck -3.29912 -6.95625 8.55107
head -0.0824121 -3.50059 3.15513
rclavicle 7.71285e-014 -1.44715e-013
rhumerus 38.3222 48.2906 -48.934
rradius 57.798
rwrist 15.5128
rhand -10.1928 -46.3823
rfingers 7.12502
rthumb 15.7979 -75.7577
lclavicle 7.71285e-014 -1.44715e-013
lhumerus 6.57568 -30.4075 79.8316
lradius 29.2369
lwrist 2.38265
lhand -24.2629 -23.2852
lfingers 7.12502
lthumb 2.22343 6.68293
rfemur -37.2563 27.8901 6.19459
rtibia 6.24709
rfoot -6.73425 -23.3061
rtoes 0.939791
lfemur -16.7762 22.7065 -16.0425
ltibia -11.8163
lfoot -5.17353 0.43922
ltoes 50.0194
744
root -0.227393 17.807 8.83908 33.7052 -13.5889 -6.42341
lowerback 18.8988 -2.97636 7.29637
upperback 2.57394 -1.72162 9.10596
thorax -7.74044 -0.951581 6.2893
lowerneck -3.16177 -6.34417 -1.94569
upperneck -3.61969 -8.32466 8.4938
head -0.123502 -4.2028 2.92871
rclavicle -2.22639e-014 9.78021e-014
rhumerus 39.063 46.1769 -49.2467
rradius 53.1705
rwrist 17.1678
rhand -10.5445 -45.6457
rfingers 7.12502
rthumb 15.4593 -75.0475
lclavicle -2.22639e-014 9.78021e-014
lhumerus 5.65279 -35.4004 80.0811
lradius 33.2421
lwrist 5.79306
lhand -23.0018 -22.921
lfingers 7.12502
lthumb 3.44134 7.03098
rfemur -37.3432 28.0718 6.16582
rtibia 6.40975
rfoot -6.5245 -22.9973
rtoes -0.0904568
lfemur -16.9173 24.0875 -16.6471
ltibia -11.4348
lfoot -4.68483 -0.396146
ltoes 49.6768
745
root -0.236648 17.806 8.84931 33.6225 -14.1244 -6.52494
lowerback 18.9651 -2.42325 8.38393
upperback 2.41323 -0.747822 9.15187
thorax -8.01898 -0.520227 5.48908
lowerneck -2.92789 -7.05718 -1.99265
upperneck -3.92984 -9.25908 8.39562
head -0.213063 -4.68167 2.89999
rclavicle 7.95139e-016 -3.02153e-014
rhumerus 41.287 45.5862 -47.8844
rradius 47.7636
rwrist 18.6219
rhand -10.7742 -44.5499
rfingers 7.12502
rthumb 15.238 -73.9687
lclavicle 7.95139e-016 -3.02153e-014
lhumerus 4.36154 -38.4818 81.0961
lradius 36.4685
lwrist 7.92795
lhand -22.2365 -23.0704
lfingers 7.12502
lthumb 4.18035 6.86829
rfemur -37.405 28.4709 6.10657
rtibia 6.55754
rfoot -6.49953 -22.862
rtoes -0.32666
lfemur -16.8821 25.4798 -17.0683
ltibia -11.2282
lfoot -4.14293 -1.17722
ltoes 49.4943
746
root -0.249223 17.806 8.86027 33.4795 -14.618 -6.51255
lowerback 18.8961 -1.98997 9.40627
upperback 2.34717 0.0236799 9.20267
thorax -8.07862 -0.186922 4.77067
lowerneck -2.43798 -7.67491 -2.4706
upperneck -4.39898 -10.0465 8.60413
head -0.365329 -5.09161 3.06996
rclavicle 2.8625e-014 -8.26944e-014
rhumerus 43.5649 45.0675 -46.7449
rradius 41.654
rwrist 20.6009
rhand -10.7591 -41.9785
rfingers 7.12502
rthumb 15.2525 -71.3962
lclavicle 2.8625e-014 -8.26944e-014
lhumerus 3.57788 -41.4503 81.7426
lradius 39.1158
lwrist 10.4644
lhand -22.0228 -23.7561
lfingers 7.12502
lthumb 4.38671 6.17845
rfemur -37.4203 28.9213 5.90464
rtibia 6.6926
rfoot -6.66544 -22.8621
rtoes 0.166482
lfemur -16.6577 26.812 -17.445
ltibia -11.2171
lfoot -3.52125 -1.91514
ltoes 49.5074
